<svg width="111" height="87" viewBox="0 0 111 87" fill="none" xmlns="http://www.w3.org/2000/svg">
<path d="M43.8596 34C43.8596 34 42.9677 31.8684 43.1015 31.1905C43.1234 30.1758 42.9695 29.1649 42.6466 28.2027C42.495 27.8638 41.7547 24.7154 41.6745 24.2605C41.5942 23.8057 41.3712 19.7208 41.6745 19.3462C42.1057 18.8194 42.4299 18.2135 42.6288 17.5624C42.5412 16.757 42.6642 15.9426 42.9855 15.1989C43.3958 14.6013 48.3369 9.08944 49.1039 8.78619C49.871 8.48295 50.8253 8.34025 51.0928 8.15295C52.7717 7.57284 54.5147 7.19848 56.2837 7.03809C57.8177 7.03809 62.0988 8.91106 63.1512 12.7016C64.2037 16.4921 66.2015 17.5 66.5404 18.1778C66.8793 18.8557 66.9953 24.8581 66.9953 26.5438C66.9953 28.2294 67.6285 29.0946 67.4412 29.6921C67.2539 30.2897 65.9964 34 65.9964 34" stroke="black" stroke-width="0.891892" stroke-linecap="round" stroke-linejoin="round"/>
<path d="M53.0371 27.1056C53.2719 27.892 53.7884 28.5642 54.4877 28.9936C55.187 29.4231 56.0201 29.5797 56.8276 29.4335C59.0395 29.0143 59.2625 27.8905 59.1912 26.6954C59.1707 26.1549 59.1201 25.6159 59.0395 25.0811" stroke="black" stroke-width="0.891892" stroke-linecap="round" stroke-linejoin="round"/>
<path d="M57.6486 12.1934C58.1718 12.0424 58.7268 12.04 59.2513 12.1865C59.7758 12.333 60.2492 12.6226 60.6186 13.0228C61.6264 14.1466 63.9542 16.9918 63.0177 18.3742C62.0813 19.7566 59.2272 20.5861 57.9161 19.7209C56.605 18.8558 54.5002 17.1345 54.8034 16.0107C55.1067 14.8869 56.9796 12.4431 57.6486 12.1934Z" stroke="black" stroke-width="0.891892" stroke-linecap="round" stroke-linejoin="round"/>
<path d="M49.6301 15.5914C50.7093 16.2158 52.4039 17.0185 51.949 18.2671C51.4941 19.5158 49.8174 22.0131 48.8006 22.352C47.7839 22.6909 45.8752 22.6909 45.2331 21.6741C44.5909 20.6574 44.4482 17.7766 44.9031 17.2147C45.3579 16.6528 47.8017 14.5301 49.6301 15.5914Z" stroke="black" stroke-width="0.891892" stroke-linecap="round" stroke-linejoin="round"/>
<path d="M45.1972 16.9739C45.8037 17.1166 46.7223 17.4377 46.6332 18.5525C46.5707 19.3374 45.001 19.7744 44.6978 19.7387" stroke="black" stroke-width="0.891892" stroke-linecap="round" stroke-linejoin="round"/>
<path d="M60.6186 13.0406C60.4013 12.9951 60.176 13.0049 59.9634 13.0689C59.7508 13.1329 59.5576 13.2491 59.4015 13.407C59.2454 13.5649 59.1313 13.7594 59.0697 13.9727C59.0081 14.186 59.001 14.4114 59.0489 14.6282C59.2217 14.9313 59.4922 15.1668 59.8162 15.2964C60.1402 15.426 60.4985 15.442 60.8327 15.3417C61.0578 15.2476 61.2522 15.0926 61.394 14.8941C61.5358 14.6955 61.6194 14.4614 61.6354 14.2179" stroke="black" stroke-width="0.891892" stroke-linecap="round" stroke-linejoin="round"/>
<path d="M69.2162 34H39.7838C39.3107 34 38.857 33.8121 38.5225 33.4775C38.1879 33.143 38 32.6893 38 32.2162V2.78378C38 2.31069 38.1879 1.85698 38.5225 1.52246C38.857 1.18793 39.3107 1 39.7838 1H69.2162C69.6893 1 70.143 1.18793 70.4775 1.52246C70.8121 1.85698 71 2.31069 71 2.78378V32.2162C71 32.6893 70.8121 33.143 70.4775 33.4775C70.143 33.8121 69.6893 34 69.2162 34Z" stroke="black" stroke-width="0.891892" stroke-linecap="round" stroke-linejoin="round"/>
<path d="M25.178 56.7269C21.2644 56.7269 19.1862 54.4867 19.1862 51.3288C19.1862 48.198 21.2644 45.9578 25.178 45.9578H34.1657C38.0793 45.9578 40.1305 48.198 40.1305 51.3288C40.1305 54.4867 38.0793 56.7269 34.1657 56.7269H25.178ZM18.3495 62.7187V58.4812H41.0212V62.7187H37.5125V67.28H31.9255V62.7187H27.4182V67.28H21.8312V62.7187H18.3495ZM24.5032 52.9212L35.1104 50.897V49.7634L24.5032 51.7877V52.9212ZM43.3539 51.9766C43.3539 48.3059 46.1609 45.8768 50.3444 45.8768C54.5008 45.8768 57.3078 48.3059 57.3078 51.9766V61.2612C57.3078 63.7983 56.1472 65.5526 53.8261 66.5512C49.1568 68.5485 43.3539 66.3353 43.3539 61.2612V51.9766ZM49.8046 61.828H51.0191V50.897H49.8046V61.828ZM58.1175 57.9414V53.1372H60.9785V45.6609H66.3225V67.199H60.9785V57.9414H58.1175ZM91.6985 57.7525H86.3814V45.6609H91.6985V57.7525ZM69.4856 57.2667V45.9848H83.4665V57.2667H69.4856ZM71.5369 68.0087V58.994H91.6985V68.0087H71.5369ZM73.2372 53.461L79.8768 51.0859V50.0063L73.2372 52.3814V53.461ZM76.4491 64.473L86.7323 63.4474V62.4218L76.4491 63.4474V64.473Z" fill="black"/>
</svg>
